<svg width="18" height="18" viewBox="0 0 18 18" fill="none" xmlns="http://www.w3.org/2000/svg">
<path d="M15.5171 7.1505C14.9963 5.76619 13.6597 4.78125 12.0938 4.78125C11.7332 4.78125 11.385 4.83356 11.0554 4.93087C10.1632 3.49031 8.56856 2.53125 6.75 2.53125C3.9915 2.53125 1.74713 4.7385 1.68863 7.48294C0.678938 8.06738 0 9.15919 0 10.4062C0 12.2692 1.512 13.7812 3.375 13.7812H6.75V12.6562H3.37331C2.13412 12.6562 1.125 11.6488 1.125 10.4062C1.125 9.34144 1.86581 8.44763 2.86144 8.21475C2.82881 8.01281 2.8125 7.80525 2.8125 7.59375C2.8125 5.41913 4.57538 3.65625 6.75 3.65625C8.52862 3.65625 10.0316 4.83581 10.5199 6.45469C10.9524 6.111 11.4981 5.90625 12.0938 5.90625C13.3965 5.90625 14.4703 6.89062 14.6098 8.15625H14.6267C15.8659 8.15625 16.875 9.16369 16.875 10.4062C16.875 11.6466 15.8687 12.6562 14.6267 12.6562H11.25V13.7812H14.625C16.488 13.7812 18 12.2664 18 10.4062C18 8.85094 16.9481 7.54144 15.5171 7.1505Z" fill="#6A79DD"/>
<path d="M9 7.59375L6.1875 10.9688H7.875V15.4688H10.125V10.9688H11.8125L9 7.59375Z" fill="#6A79DD"/>
</svg>
