<svg width="32" height="32" viewBox="0 0 32 32" fill="none" xmlns="http://www.w3.org/2000/svg">
<path d="M32 16C32 19.1582 31.0625 22.2297 29.2891 24.8823C28.9055 25.4561 28.1292 25.6104 27.5552 25.2266C26.9812 24.843 26.8271 24.0667 27.2107 23.4927C28.7085 21.2527 29.5 18.6619 29.5 16C29.5 8.55615 23.4438 2.5 16 2.5C8.55615 2.5 2.5 8.55615 2.5 16C2.5 23.4438 8.55615 29.5 16 29.5C18.4692 29.5 20.884 28.8276 22.9836 27.5559C23.574 27.1982 24.3425 27.387 24.7002 27.9773C25.0581 28.5679 24.8694 29.3364 24.2788 29.6941C21.7886 31.2026 18.9258 32 16 32C11.7263 32 7.70825 30.3357 4.68628 27.3137C1.66431 24.2917 0 20.2737 0 16C0 11.7263 1.66431 7.70825 4.68628 4.68628C7.70825 1.66431 11.7263 0 16 0C20.2737 0 24.2917 1.66431 27.3137 4.68628C30.3357 7.70825 32 11.7263 32 16ZM25 16C25 15.3096 24.4404 14.75 23.75 14.75H10.801L15.3186 10.2617C15.8083 9.77515 15.8108 8.98364 15.3242 8.4939C14.8376 8.00415 14.0461 8.00171 13.5564 8.48828L8.66895 13.3442C7.95532 14.0532 7.5625 14.9963 7.5625 16C7.5625 17.0037 7.95532 17.9468 8.66895 18.6555L13.5564 23.5117C13.8003 23.7539 14.1189 23.875 14.4375 23.875C14.7588 23.875 15.0798 23.752 15.3242 23.5061C15.8108 23.0164 15.8083 22.2249 15.3186 21.7383L10.801 17.25H23.75C24.4404 17.25 25 16.6904 25 16Z" fill="#484848"/>
</svg>
